<?xml version="1.0" encoding="UTF-8"?>
<svg xmlns="http://www.w3.org/2000/svg" width="24" height="24" viewBox="0 0 24 24" fill="none" stroke="currentColor" stroke-width="2" stroke-linecap="round" stroke-linejoin="round">
  <path d="M17 12a5 5 0 0 0 10 0 5 5 0 0 0-10 0Z" transform="scale(0.9)"/>
  <path d="M12 5c-1.5 0-2.5 1.5-2.5 3.5s1 3.5 2.5 3.5 2.5-1.5 2.5-3.5-1-3.5-2.5-3.5Z" transform="scale(0.9)"/>
  <path d="M5 10c-1.5 0-2.5 1.5-2.5 3.5s1 3.5 2.5 3.5 2.5-1.5 2.5-3.5-1-3.5-2.5-3.5Z" transform="scale(0.9)"/>
  <path d="M12 15c-1.5 0-2.5 1.5-2.5 3.5s1 3.5 2.5 3.5 2.5-1.5 2.5-3.5-1-3.5-2.5-3.5Z" transform="scale(0.9)"/>
</svg>
